<svg xmlns="http://www.w3.org/2000/svg" viewBox="0 0 100 100" width="100" height="100">
  <!-- AAS Sigil: Circle with tentacle, antler, root -->

  <!-- Outer circle -->
  <circle cx="50" cy="50" r="45" fill="none" stroke="currentColor" stroke-width="3"/>

  <!-- Center point -->
  <circle cx="50" cy="50" r="4" fill="currentColor"/>

  <!-- Tentacle (upper right, ~30°) -->
  <path d="M 50 50
           Q 65 35, 75 25
           Q 80 20, 85 22
           M 70 30 Q 75 28, 78 30
           M 65 38 Q 68 35, 72 37"
        fill="none" stroke="currentColor" stroke-width="2.5" stroke-linecap="round"/>

  <!-- Antler (upper left, ~150°) -->
  <path d="M 50 50
           L 30 30
           M 35 35 L 25 28
           M 35 35 L 28 38
           M 30 30 L 18 22
           M 30 30 L 22 18"
        fill="none" stroke="currentColor" stroke-width="2.5" stroke-linecap="round"/>

  <!-- Root (bottom, ~270°) -->
  <path d="M 50 50
           Q 50 65, 48 80
           M 50 60 Q 55 68, 60 78
           M 50 60 Q 45 70, 42 82
           M 48 72 Q 44 78, 40 88
           M 52 75 Q 56 82, 58 90"
        fill="none" stroke="currentColor" stroke-width="2.5" stroke-linecap="round"/>
</svg>
